<svg width="145" height="23" viewBox="0 0 145 23" fill="none" xmlns="http://www.w3.org/2000/svg">
<path d="M0.992 1.46587H8.624C10.448 1.46587 12.056 1.81787 13.448 2.52187C14.856 3.20987 15.944 4.18587 16.712 5.44987C17.496 6.71387 17.888 8.18587 17.888 9.86587C17.888 11.5459 17.496 13.0179 16.712 14.2819C15.944 15.5459 14.856 16.5299 13.448 17.2339C12.056 17.9219 10.448 18.2659 8.624 18.2659H0.992V1.46587ZM8.432 15.0739C10.112 15.0739 11.448 14.6099 12.44 13.6819C13.448 12.7379 13.952 11.4659 13.952 9.86587C13.952 8.26587 13.448 7.00187 12.44 6.07387C11.448 5.12987 10.112 4.65787 8.432 4.65787H4.88V15.0739H8.432ZM33.5641 5.35387V18.2659H30.0121V16.7299C29.5161 17.2899 28.9241 17.7219 28.2361 18.0259C27.5481 18.3139 26.8041 18.4579 26.0041 18.4579C24.3081 18.4579 22.9641 17.9699 21.9721 16.9939C20.9801 16.0179 20.4841 14.5699 20.4841 12.6499V5.35387H24.2281V12.0979C24.2281 14.1779 25.1001 15.2179 26.8441 15.2179C27.7401 15.2179 28.4601 14.9299 29.0041 14.3539C29.5481 13.7619 29.8201 12.8899 29.8201 11.7379V5.35387H33.5641ZM50.1847 0.457868V18.2659H46.6087V16.7779C45.6807 17.8979 44.3367 18.4579 42.5767 18.4579C41.3607 18.4579 40.2567 18.1859 39.2647 17.6419C38.2887 17.0979 37.5207 16.3219 36.9607 15.3139C36.4007 14.3059 36.1207 13.1379 36.1207 11.8099C36.1207 10.4819 36.4007 9.31387 36.9607 8.30587C37.5207 7.29787 38.2887 6.52187 39.2647 5.97787C40.2567 5.43387 41.3607 5.16187 42.5767 5.16187C44.2247 5.16187 45.5127 5.68187 46.4407 6.72187V0.457868H50.1847ZM43.2247 15.3859C44.1687 15.3859 44.9527 15.0659 45.5767 14.4259C46.2007 13.7699 46.5127 12.8979 46.5127 11.8099C46.5127 10.7219 46.2007 9.85787 45.5767 9.21787C44.9527 8.56187 44.1687 8.23387 43.2247 8.23387C42.2647 8.23387 41.4727 8.56187 40.8487 9.21787C40.2247 9.85787 39.9127 10.7219 39.9127 11.8099C39.9127 12.8979 40.2247 13.7699 40.8487 14.4259C41.4727 15.0659 42.2647 15.3859 43.2247 15.3859ZM66.2979 11.8579C66.2979 11.9059 66.2739 12.2419 66.2259 12.8659H56.4579C56.6339 13.6659 57.0499 14.2979 57.7059 14.7619C58.3619 15.2259 59.1779 15.4579 60.1539 15.4579C60.8259 15.4579 61.4179 15.3619 61.9299 15.1699C62.4579 14.9619 62.9459 14.6419 63.3939 14.2099L65.3859 16.3699C64.1699 17.7619 62.3939 18.4579 60.0579 18.4579C58.6019 18.4579 57.3139 18.1779 56.1939 17.6179C55.0739 17.0419 54.2099 16.2499 53.6019 15.2419C52.9939 14.2339 52.6899 13.0899 52.6899 11.8099C52.6899 10.5459 52.9859 9.40987 53.5779 8.40187C54.1859 7.37787 55.0099 6.58587 56.0499 6.02587C57.1059 5.44987 58.2819 5.16187 59.5779 5.16187C60.8419 5.16187 61.9859 5.43387 63.0099 5.97787C64.0339 6.52187 64.8339 7.30587 65.4099 8.32987C66.0019 9.33787 66.2979 10.5139 66.2979 11.8579ZM59.6019 7.99387C58.7539 7.99387 58.0419 8.23387 57.4659 8.71387C56.8899 9.19387 56.5379 9.84987 56.4099 10.6819H62.7699C62.6419 9.86587 62.2899 9.21787 61.7139 8.73787C61.1379 8.24187 60.4339 7.99387 59.6019 7.99387ZM74.5745 18.5539C73.2465 18.5539 71.9585 18.3779 70.7105 18.0259C69.4785 17.6579 68.4865 17.1859 67.7345 16.6099L69.0545 13.6819C69.7745 14.2099 70.6305 14.6339 71.6225 14.9539C72.6145 15.2739 73.6065 15.4339 74.5985 15.4339C75.7025 15.4339 76.5185 15.2739 77.0465 14.9539C77.5745 14.6179 77.8385 14.1779 77.8385 13.6339C77.8385 13.2339 77.6785 12.9059 77.3585 12.6499C77.0545 12.3779 76.6545 12.1619 76.1585 12.0019C75.6785 11.8419 75.0225 11.6659 74.1905 11.4739C72.9105 11.1699 71.8625 10.8659 71.0465 10.5619C70.2305 10.2579 69.5265 9.76987 68.9345 9.09787C68.3585 8.42587 68.0705 7.52987 68.0705 6.40987C68.0705 5.43387 68.3345 4.55387 68.8625 3.76987C69.3905 2.96987 70.1825 2.33787 71.2385 1.87387C72.3105 1.40987 73.6145 1.17787 75.1505 1.17787C76.2225 1.17787 77.2705 1.30587 78.2945 1.56187C79.3185 1.81787 80.2145 2.18587 80.9825 2.66587L79.7825 5.61787C78.2305 4.73787 76.6785 4.29787 75.1265 4.29787C74.0385 4.29787 73.2305 4.47387 72.7025 4.82587C72.1905 5.17787 71.9345 5.64187 71.9345 6.21787C71.9345 6.79387 72.2305 7.22587 72.8225 7.51387C73.4305 7.78587 74.3505 8.05787 75.5825 8.32987C76.8625 8.63387 77.9105 8.93787 78.7265 9.24187C79.5425 9.54587 80.2385 10.0259 80.8145 10.6819C81.4065 11.3379 81.7025 12.2259 81.7025 13.3459C81.7025 14.3059 81.4305 15.1859 80.8865 15.9859C80.3585 16.7699 79.5585 17.3939 78.4865 17.8579C77.4145 18.3219 76.1105 18.5539 74.5745 18.5539ZM91.9432 5.16187C93.5432 5.16187 94.8312 5.64187 95.8072 6.60187C96.7992 7.56187 97.2952 8.98587 97.2952 10.8739V18.2659H93.5512V11.4499C93.5512 10.4259 93.3272 9.66587 92.8792 9.16987C92.4312 8.65787 91.7832 8.40187 90.9352 8.40187C89.9912 8.40187 89.2392 8.69787 88.6792 9.28987C88.1192 9.86587 87.8392 10.7299 87.8392 11.8819V18.2659H84.0952V0.457868H87.8392V6.69787C88.3352 6.20187 88.9352 5.82587 89.6392 5.56987C90.3432 5.29787 91.1112 5.16187 91.9432 5.16187ZM105.897 5.16187C107.897 5.16187 109.433 5.64187 110.505 6.60187C111.577 7.54587 112.113 8.97787 112.113 10.8979V18.2659H108.609V16.6579C107.905 17.8579 106.593 18.4579 104.673 18.4579C103.681 18.4579 102.817 18.2899 102.081 17.9539C101.361 17.6179 100.809 17.1539 100.425 16.5619C100.041 15.9699 99.8489 15.2979 99.8489 14.5459C99.8489 13.3459 100.297 12.4019 101.193 11.7139C102.105 11.0259 103.505 10.6819 105.393 10.6819H108.369C108.369 9.86587 108.121 9.24187 107.625 8.80987C107.129 8.36187 106.385 8.13787 105.393 8.13787C104.705 8.13787 104.025 8.24987 103.353 8.47387C102.697 8.68187 102.137 8.96987 101.673 9.33787L100.329 6.72187C101.033 6.22587 101.873 5.84187 102.849 5.56987C103.841 5.29787 104.857 5.16187 105.897 5.16187ZM105.609 15.9379C106.249 15.9379 106.817 15.7939 107.313 15.5059C107.809 15.2019 108.161 14.7619 108.369 14.1859V12.8659H105.801C104.265 12.8659 103.497 13.3699 103.497 14.3779C103.497 14.8579 103.681 15.2419 104.049 15.5299C104.433 15.8019 104.953 15.9379 105.609 15.9379ZM123.133 5.16187C124.333 5.16187 125.421 5.44187 126.397 6.00187C127.389 6.54587 128.165 7.32187 128.725 8.32987C129.285 9.32187 129.565 10.4819 129.565 11.8099C129.565 13.1379 129.285 14.3059 128.725 15.3139C128.165 16.3059 127.389 17.0819 126.397 17.6419C125.421 18.1859 124.333 18.4579 123.133 18.4579C121.485 18.4579 120.189 17.9379 119.245 16.8979V22.9219H115.501V5.35387H119.077V6.84187C120.005 5.72187 121.357 5.16187 123.133 5.16187ZM122.485 15.3859C123.445 15.3859 124.229 15.0659 124.837 14.4259C125.461 13.7699 125.773 12.8979 125.773 11.8099C125.773 10.7219 125.461 9.85787 124.837 9.21787C124.229 8.56187 123.445 8.23387 122.485 8.23387C121.525 8.23387 120.733 8.56187 120.109 9.21787C119.501 9.85787 119.197 10.7219 119.197 11.8099C119.197 12.8979 119.501 13.7699 120.109 14.4259C120.733 15.0659 121.525 15.3859 122.485 15.3859ZM144.72 11.8579C144.72 11.9059 144.696 12.2419 144.648 12.8659H134.88C135.056 13.6659 135.472 14.2979 136.128 14.7619C136.784 15.2259 137.6 15.4579 138.576 15.4579C139.248 15.4579 139.84 15.3619 140.352 15.1699C140.88 14.9619 141.368 14.6419 141.816 14.2099L143.808 16.3699C142.592 17.7619 140.816 18.4579 138.48 18.4579C137.024 18.4579 135.736 18.1779 134.616 17.6179C133.496 17.0419 132.632 16.2499 132.024 15.2419C131.416 14.2339 131.112 13.0899 131.112 11.8099C131.112 10.5459 131.408 9.40987 132 8.40187C132.608 7.37787 133.432 6.58587 134.472 6.02587C135.528 5.44987 136.704 5.16187 138 5.16187C139.264 5.16187 140.408 5.43387 141.432 5.97787C142.456 6.52187 143.256 7.30587 143.832 8.32987C144.424 9.33787 144.72 10.5139 144.72 11.8579ZM138.024 7.99387C137.176 7.99387 136.464 8.23387 135.888 8.71387C135.312 9.19387 134.96 9.84987 134.832 10.6819H141.192C141.064 9.86587 140.712 9.21787 140.136 8.73787C139.56 8.24187 138.856 7.99387 138.024 7.99387Z" fill="#244D4D"/>
</svg>
